<svg width="500" height="500" viewBox="0 0 500 500" fill="none" xmlns="http://www.w3.org/2000/svg">
<circle cx="250" cy="250" r="250" fill="black"/>
<path d="M142.924 183.902C138.053 185.638 134.749 188.773 133.014 193.309C131.278 197.844 130.41 203.051 130.41 208.93V225.895C130.41 231.605 129.122 236.785 126.547 241.432C124.027 246.023 120.024 249.69 114.537 252.434C109.106 255.121 101.995 256.465 93.2051 256.465V242.943C98.3561 242.943 102.051 241.404 104.291 238.324C106.587 235.245 107.734 231.102 107.734 225.895V208.93C107.734 203.051 108.658 197.564 110.506 192.469C112.354 187.318 115.489 182.811 119.912 178.947C124.335 175.028 130.382 172.005 138.053 169.877L142.924 183.902ZM138.053 334.066C130.382 331.883 124.335 328.859 119.912 324.996C115.489 321.133 112.354 316.626 110.506 311.475C108.658 306.38 107.734 300.893 107.734 295.014V277.965C107.734 272.814 106.587 268.699 104.291 265.619C102.051 262.54 98.3561 261 93.2051 261V247.479C101.995 247.479 109.106 248.85 114.537 251.594C120.024 254.281 124.027 257.921 126.547 262.512C129.122 267.103 130.41 272.254 130.41 277.965V295.014C130.41 300.837 131.278 306.016 133.014 310.551C134.749 315.086 138.053 318.249 142.924 320.041L138.053 334.066ZM360.863 169.877C368.646 172.005 374.721 175.028 379.088 178.947C383.511 182.811 386.618 187.318 388.41 192.469C390.258 197.564 391.182 203.051 391.182 208.93V225.895C391.182 231.102 392.301 235.245 394.541 238.324C396.837 241.404 400.56 242.943 405.711 242.943V256.213C396.921 256.213 389.782 254.869 384.295 252.182C378.864 249.494 374.861 245.883 372.285 241.348C369.766 236.757 368.506 231.605 368.506 225.895V208.93C368.506 203.051 367.638 197.844 365.902 193.309C364.223 188.773 360.919 185.638 355.992 183.902L360.863 169.877ZM355.992 320.041C360.919 318.249 364.223 315.086 365.902 310.551C367.638 306.016 368.506 300.837 368.506 295.014V277.965C368.506 272.254 369.766 267.131 372.285 262.596C374.861 258.005 378.864 254.365 384.295 251.678C389.782 248.99 396.921 247.646 405.711 247.646V261C400.56 261 396.837 262.54 394.541 265.619C392.301 268.699 391.182 272.814 391.182 277.965V295.014C391.182 300.893 390.258 306.38 388.41 311.475C386.618 316.626 383.511 321.133 379.088 324.996C374.721 328.859 368.646 331.883 360.863 334.066L355.992 320.041Z" fill="url(#paint0_linear_105_2)"/>
<path d="M182.984 304H156.529V181.719H182.984V304ZM230.939 254.533H175.93V233.285H230.939V254.533ZM236.734 203.051H175.93V181.719H236.734V203.051ZM347.594 263.016C347.09 271.302 344.822 278.665 340.791 285.104C336.76 291.542 331.133 296.581 323.91 300.221C316.743 303.86 308.121 305.68 298.043 305.68C287.517 305.68 278.447 303.3 270.832 298.541C263.217 293.726 257.367 286.895 253.279 278.049C249.192 269.202 247.148 258.732 247.148 246.639V239.164C247.148 227.014 249.248 216.516 253.447 207.67C257.702 198.824 263.637 191.993 271.252 187.178C278.867 182.363 287.853 179.955 298.211 179.955C308.513 179.955 317.191 181.859 324.246 185.666C331.357 189.417 336.844 194.568 340.707 201.119C344.626 207.67 346.978 215.145 347.762 223.543H321.391C320.887 216.376 318.927 210.945 315.512 207.25C312.152 203.499 306.385 201.623 298.211 201.623C292.78 201.623 288.273 202.939 284.689 205.57C281.106 208.202 278.419 212.289 276.627 217.832C274.835 223.319 273.939 230.374 273.939 238.996V246.639C273.939 255.093 274.723 262.092 276.291 267.635C277.915 273.178 280.49 277.321 284.018 280.064C287.545 282.752 292.22 284.096 298.043 284.096C303.138 284.096 307.337 283.34 310.641 281.828C313.944 280.26 316.464 277.909 318.199 274.773C319.935 271.638 320.971 267.719 321.307 263.016H347.594Z" fill="#F2F2F2"/>
<defs>
<linearGradient id="paint0_linear_105_2" x1="89" y1="124" x2="334.997" y2="436.115" gradientUnits="userSpaceOnUse">
<stop stop-color="#FD0D91"/>
<stop offset="1" stop-color="#4412FF"/>
</linearGradient>
</defs>
</svg>
